<svg xmlns="http://www.w3.org/2000/svg" viewBox="0 0 64 64" role="img" aria-label="Shaker">
  <defs>
    <linearGradient id="shakerBody" x1="0" y1="0" x2="1" y2="0">
      <stop offset="0" stop-color="#1c1a17" />
      <stop offset="0.35" stop-color="#3b3733" />
      <stop offset="0.7" stop-color="#232120" />
      <stop offset="1" stop-color="#141312" />
    </linearGradient>
    <linearGradient id="shakerLid" x1="0" y1="0" x2="1" y2="0">
      <stop offset="0" stop-color="#a8161c" />
      <stop offset="0.4" stop-color="#e8323a" />
      <stop offset="1" stop-color="#8f1116" />
    </linearGradient>
  </defs>

  <path d="M18 22 h28 l-3 33 a5 5 0 0 1 -5 4 h-12 a5 5 0 0 1 -5 -4 z" fill="url(#shakerBody)" />
  <path d="M17 14 h30 a3 3 0 0 1 3 3 v6 a3 3 0 0 1 -3 3 h-30 a3 3 0 0 1 -3 -3 v-6 a3 3 0 0 1 3 -3 z" fill="url(#shakerLid)" />
  <rect x="21" y="6" width="22" height="8" rx="3" fill="#c11d24" />

  <!-- Skala -->
  <g stroke="#ffdd00" stroke-width="2" stroke-linecap="round" opacity="0.9">
    <path d="M38 34 h5" />
    <path d="M38 42 h5" />
    <path d="M38 50 h5" />
  </g>
  <path d="M23 30 q3 12 1 24" stroke="#ffffff" stroke-width="3" fill="none" opacity="0.18" stroke-linecap="round" />
</svg>
